<?xml version="1.0" encoding="utf-8"?>
<!-- Generator: Adobe Illustrator 22.0.1, SVG Export Plug-In . SVG Version: 6.00 Build 0)  -->
<svg version="1.1" id="Layer_1" xmlns="http://www.w3.org/2000/svg" xmlns:xlink="http://www.w3.org/1999/xlink" x="0px" y="0px"
	 viewBox="0 0 1280 800" enable-background="new 0 0 1280 800" xml:space="preserve">
<g>
	<g>
		<path fill="#0066DA" d="M68.2,547.2l20.3,35.1c4.2,7.2,10.2,13.2,17.4,17.4L178.7,474H33.3c0,8.3,2.2,16.5,6.3,23.8L68.2,547.2z"
			/>
		<path fill="#00AC47" d="M264,326l-72.7-125.8c-7.2,4.2-13.2,10.2-17.4,17.4L39.7,450.2c-4.2,7.2-6.3,15.4-6.3,23.8h145.3L264,326z
			"/>
		<path fill="#00832D" d="M264,326l72.7-125.8c-7.2-4.2-15.4-6.4-23.8-6.3h-97.8c-8.3,0.1-16.5,2.2-23.8,6.3L264,326z"/>
		<path fill="#2684FC" d="M349.3,474H178.7L106,599.7c7.2,4.2,15.4,6.4,23.8,6.3h268.4c8.3-0.1,16.5-2.2,23.8-6.3L349.3,474z"/>
		<path fill="#EA4335" d="M422,599.7c7.2-4.2,13.2-10.2,17.4-17.4l8.5-14.6l40.4-70c4.1-7.2,6.3-15.4,6.3-23.8h-145L422,599.7z"/>
		<path fill="#FFBA00" d="M421.2,334l-67.1-116.2c-4.2-7.2-10.2-13.2-17.4-17.4L264,326L349.3,474h145.1c0-8.3-2.2-16.5-6.3-23.8
			L421.2,334z"/>
	</g>
	<g>
		<path fill="#55585D" d="M935,306.1c4.6-0.8,9.7-0.9,14.1,1c3.1,2.2,6.2,4.7,8.1,8.1c1.9,5.6,1.9,11.9-0.1,17.5
			c-2.4,4.3-6.3,8.1-11.4,8.8c-5,0.8-10.5,0.8-15-1.6c-3.6-2.8-7.2-6.3-7.9-11c-1-4.9-0.7-10.2,1.6-14.6
			C927.1,310.7,930.4,306.9,935,306.1z"/>
		<g>
			<path fill="#55585D" d="M642.2,307.4c22.6-0.5,45.2,0,67.8-0.2c3.1-0.1,6.2,0.3,9.1,1.3c6.8,1.5,14.2,1,20.6,4.2
				c28.1,8.3,51.7,31.5,59.9,59.7c3.3,6.3,2.6,13.7,4.3,20.4c1.9,6.4,1,13.1,1.2,19.7c0.2,3.3-0.5,6.4-1.5,9.5
				c-0.8,6.2-1,12.6-3,18.6c-2,3.8-2.5,8.3-4.7,12c-9.8,22.5-29.3,40.4-52.5,48.3c-4.7,2.5-10.1,2.6-15.1,3.8
				c-5.2,2.1-10.9,2-16.3,2.4c-23.3,0-46.5,0.2-69.8-0.1C642.3,440.6,642.3,374,642.2,307.4z M668.9,332.8
				c-0.2,49.7-0.1,99.4,0,149.1c11.8,0,23.6,0.2,35.5-0.1c8.6-0.9,17.7,0,25.9-3.6c7.5-2.2,14.7-5.7,21-10.4
				c8.5-6.1,14.7-14.8,19.5-24c1.1-2.6,1.6-5.4,2.8-8c2.4-5.5,2.5-11.6,3.3-17.5c2.3-7.7,1.8-16.1-0.2-23.8
				c-1.3-20.6-13-40.3-30.7-51c-3.3-2.3-7.1-3.4-10.7-5.3c-3.7-1.9-8-1.9-11.9-3.4c-4.5-1.7-9.4-1.5-14.2-1.6
				C695.7,332.3,682.3,332.9,668.9,332.8z"/>
		</g>
		<g>
			<path fill="#55585D" d="M1157.2,369.7c5.3-2.7,11.3-3.1,17.1-3.4c8.4-0.1,16.9-0.4,25.1,1.4c8.9,2.8,17.7,6.6,24.7,13
				c7.8,6.8,13.8,15.6,17.3,25.3c0.9,4.2,3.2,8,3.6,12.3c1.2,8.4,1.7,16.9,1.5,25.4c-35.6,0.4-71.1,0.2-106.7,0.1
				c-0.7,6.2,2,11.8,3.6,17.6c4.3,9.5,12,17.4,21.4,22c9.3,3.7,20,6.4,29.6,2.3c11.5-3.1,21.4-12,26.1-22.9
				c8.5,3.1,16.2,8.1,24.6,11.3c-6.7,13.1-17.5,24.3-31,30.4c-3.9,2.4-8.5,3.3-12.6,5.1c-7.6,2-15.6,1.8-23.4,1.8
				c-6.4,0-13-0.5-18.9-3.1c-16-4.7-29.1-16.8-37.4-31.1c-3-5.4-5.4-11.2-6.5-17.3c-3.1-7.2-2.4-15.2-2.5-22.9
				c0.1-6.4-0.3-13.2,2.4-19.2c3.5-16.7,14-31.7,28-41.4C1147.5,373.6,1152.2,371.2,1157.2,369.7z M1171.1,391.2
				c-2.9,1.3-6.1,2.1-9,3.4c-10,5.6-17.5,15.5-19.8,26.8c25.4,0.2,50.9,0.1,76.3,0c-0.7-10.2-7.1-19.7-15.6-25.2
				c-3.7-2.9-8.6-3.2-12.8-5.1C1183.9,389.9,1177.3,389.6,1171.1,391.2z"/>
		</g>
		<path fill="#55585D" d="M874.8,369.7c7.3-3.9,15.9-3.4,23.9-2.6c3.5,0.4,7.5,0.4,10.1,3.3c0,4-1.3,7.9-3,11.4
			c-1.5,3.6-1.8,7.5-3,11.2c-0.9,1.2-2.3,2.1-3.9,1.6c-7-1.2-14.1-1.4-21,0c-11.1,3.5-20.2,12.5-24.3,23.3c-2.7,5-2.4,11-2.8,16.5
			c0,24.3-0.1,48.6,0.1,72.9c-8.8,0.2-17.6,0.1-26.4,0.1c-0.1-45.6-0.1-91.1,0-136.7c8.5,0.2,17.1-0.6,25.5,0.4
			c-0.1,6.4-0.2,12.9,0.1,19.3c2.8-3.7,5.2-7.8,8.7-11C863.5,375.2,868.9,371.7,874.8,369.7z"/>
		<path fill="#55585D" d="M927.2,370.6c8.8-0.1,17.7-0.1,26.5,0c0,45.6,0.1,91.1,0,136.7c-8.8,0.1-17.7,0.1-26.5,0
			C927.3,461.7,927.3,416.2,927.2,370.6z"/>
		<path fill="#55585D" d="M972,370.6c9,0,18-0.2,27,0.1c3.5,0.1,3.1,4.3,4.2,6.7c9.2,24.3,18.5,48.4,27.5,72.8
			c2.1,3.9,2.9,8.3,4.9,12.2c1.7,4,2,8.7,5.1,12.1c6.6-15.5,12-31.5,18.5-47.1c1-4.5,3.3-8.4,4.7-12.7c4.3-11.1,8.6-22.2,12.8-33.4
			c1.7-3.2,2.7-6.7,3.4-10.1c9.7-1,19.4-0.4,29.1-0.4c-3.3,8.1-6.3,16.3-10,24.3c-1.4,3.6-2.4,7.4-4.2,10.9
			c-9.1,22.3-18.1,44.6-27.3,66.8c-4.2,11.1-9.3,21.9-13.1,33.1c-1.3,2.1-3.9,1.5-5.9,1.6c-7.3,0-14.5,0-21.8-0.1
			c-1.1-4.6-3.8-8.6-5.1-13.2c-9.4-23.1-18.9-46.2-28.1-69.4c-3.4-7.2-5.6-14.9-9.1-22.1c-2.6-6.2-4.6-12.6-7.6-18.7
			C975.5,379.4,972.8,375.3,972,370.6z"/>
	</g>
</g>
<rect x="9.4" y="155.6" fill="none" width="1261.1" height="488.9"/>
</svg>
